<mxfile host="app.diagrams.net" modified="2023-09-01T02:23:07.266Z" agent="Mozilla/5.0 (Windows NT 10.0; Win64; x64) AppleWebKit/537.36 (KHTML, like Gecko) Chrome/116.0.0.0 Safari/537.36" etag="r33I0S_PgJx6WKA6OgBh" version="21.7.1" type="device">
  <diagram id="C5RBs43oDa-KdzZeNtuy" name="Page-1">
    <mxGraphModel dx="1179" dy="461" grid="1" gridSize="10" guides="1" tooltips="1" connect="1" arrows="1" fold="1" page="1" pageScale="1" pageWidth="827" pageHeight="1169" math="0" shadow="0">
      <root>
        <mxCell id="WIyWlLk6GJQsqaUBKTNV-0" />
        <mxCell id="WIyWlLk6GJQsqaUBKTNV-1" parent="WIyWlLk6GJQsqaUBKTNV-0" />
        <mxCell id="Zq0K8tdkG1jb1ZXryi7G-2" style="edgeStyle=orthogonalEdgeStyle;rounded=0;orthogonalLoop=1;jettySize=auto;html=1;entryX=0.5;entryY=0;entryDx=0;entryDy=0;" edge="1" parent="WIyWlLk6GJQsqaUBKTNV-1" source="Zq0K8tdkG1jb1ZXryi7G-0" target="Zq0K8tdkG1jb1ZXryi7G-1">
          <mxGeometry relative="1" as="geometry" />
        </mxCell>
        <mxCell id="Zq0K8tdkG1jb1ZXryi7G-0" value="Início" style="ellipse;whiteSpace=wrap;html=1;" vertex="1" parent="WIyWlLk6GJQsqaUBKTNV-1">
          <mxGeometry x="360" y="80" width="120" height="80" as="geometry" />
        </mxCell>
        <mxCell id="Zq0K8tdkG1jb1ZXryi7G-4" style="edgeStyle=orthogonalEdgeStyle;rounded=0;orthogonalLoop=1;jettySize=auto;html=1;" edge="1" parent="WIyWlLk6GJQsqaUBKTNV-1" source="Zq0K8tdkG1jb1ZXryi7G-1">
          <mxGeometry relative="1" as="geometry">
            <mxPoint x="420" y="370" as="targetPoint" />
          </mxGeometry>
        </mxCell>
        <mxCell id="Zq0K8tdkG1jb1ZXryi7G-1" value="&lt;div&gt;ladoUm, ladoDois, ladoTres, raio, numero, respostaMenu : inteiros&lt;/div&gt;&lt;div&gt;menu : booleano&lt;/div&gt;&lt;div&gt;menu &amp;lt;------ verdadeiro&lt;/div&gt;" style="rounded=0;whiteSpace=wrap;html=1;" vertex="1" parent="WIyWlLk6GJQsqaUBKTNV-1">
          <mxGeometry x="231" y="230" width="378" height="60" as="geometry" />
        </mxCell>
        <mxCell id="Zq0K8tdkG1jb1ZXryi7G-10" style="edgeStyle=orthogonalEdgeStyle;rounded=0;orthogonalLoop=1;jettySize=auto;html=1;entryX=0.5;entryY=0;entryDx=0;entryDy=0;entryPerimeter=0;" edge="1" parent="WIyWlLk6GJQsqaUBKTNV-1" source="Zq0K8tdkG1jb1ZXryi7G-5" target="Zq0K8tdkG1jb1ZXryi7G-9">
          <mxGeometry relative="1" as="geometry" />
        </mxCell>
        <mxCell id="Zq0K8tdkG1jb1ZXryi7G-5" value="&quot;Unidade 01 - EX01&quot;" style="shape=display;whiteSpace=wrap;html=1;" vertex="1" parent="WIyWlLk6GJQsqaUBKTNV-1">
          <mxGeometry x="330" y="370" width="180" height="40" as="geometry" />
        </mxCell>
        <mxCell id="Zq0K8tdkG1jb1ZXryi7G-13" style="edgeStyle=orthogonalEdgeStyle;rounded=0;orthogonalLoop=1;jettySize=auto;html=1;entryX=0.5;entryY=0.233;entryDx=0;entryDy=0;entryPerimeter=0;" edge="1" parent="WIyWlLk6GJQsqaUBKTNV-1" source="Zq0K8tdkG1jb1ZXryi7G-8" target="Zq0K8tdkG1jb1ZXryi7G-12">
          <mxGeometry relative="1" as="geometry" />
        </mxCell>
        <mxCell id="Zq0K8tdkG1jb1ZXryi7G-8" value="&quot;Selecione um Exercicio&quot; &amp;amp; &quot;1 - Perimetro Triangulo&quot; &amp;amp; &quot;2 - Area Retangulo&quot; &amp;amp; &quot;3 - Perimetro Circunferencia&quot; &amp;amp; &quot;4 - Divisão e soma&quot; &amp;amp; &quot;5 - Sair&quot;" style="shape=display;whiteSpace=wrap;html=1;fillColor=default;spacingRight=9;spacingLeft=57;" vertex="1" parent="WIyWlLk6GJQsqaUBKTNV-1">
          <mxGeometry x="200" y="660" width="440" height="90" as="geometry" />
        </mxCell>
        <mxCell id="Zq0K8tdkG1jb1ZXryi7G-11" style="edgeStyle=orthogonalEdgeStyle;rounded=0;orthogonalLoop=1;jettySize=auto;html=1;entryX=0.5;entryY=0.011;entryDx=0;entryDy=0;entryPerimeter=0;" edge="1" parent="WIyWlLk6GJQsqaUBKTNV-1" source="Zq0K8tdkG1jb1ZXryi7G-9" target="Zq0K8tdkG1jb1ZXryi7G-8">
          <mxGeometry relative="1" as="geometry" />
        </mxCell>
        <mxCell id="Zq0K8tdkG1jb1ZXryi7G-85" style="edgeStyle=orthogonalEdgeStyle;rounded=0;orthogonalLoop=1;jettySize=auto;html=1;entryX=0;entryY=0.5;entryDx=0;entryDy=0;entryPerimeter=0;" edge="1" parent="WIyWlLk6GJQsqaUBKTNV-1" source="Zq0K8tdkG1jb1ZXryi7G-9" target="Zq0K8tdkG1jb1ZXryi7G-78">
          <mxGeometry relative="1" as="geometry">
            <Array as="points">
              <mxPoint x="170" y="530" />
              <mxPoint x="170" y="2040" />
            </Array>
          </mxGeometry>
        </mxCell>
        <mxCell id="Zq0K8tdkG1jb1ZXryi7G-9" value="menu" style="strokeWidth=2;html=1;shape=mxgraph.flowchart.decision;whiteSpace=wrap;" vertex="1" parent="WIyWlLk6GJQsqaUBKTNV-1">
          <mxGeometry x="370" y="480" width="100" height="100" as="geometry" />
        </mxCell>
        <mxCell id="Zq0K8tdkG1jb1ZXryi7G-15" style="edgeStyle=orthogonalEdgeStyle;rounded=0;orthogonalLoop=1;jettySize=auto;html=1;" edge="1" parent="WIyWlLk6GJQsqaUBKTNV-1" source="Zq0K8tdkG1jb1ZXryi7G-12" target="Zq0K8tdkG1jb1ZXryi7G-14">
          <mxGeometry relative="1" as="geometry" />
        </mxCell>
        <mxCell id="Zq0K8tdkG1jb1ZXryi7G-12" value="respostaMenu" style="html=1;strokeWidth=2;shape=manualInput;whiteSpace=wrap;rounded=1;size=26;arcSize=11;spacingTop=13;" vertex="1" parent="WIyWlLk6GJQsqaUBKTNV-1">
          <mxGeometry x="370" y="820" width="100" height="60" as="geometry" />
        </mxCell>
        <mxCell id="Zq0K8tdkG1jb1ZXryi7G-22" style="edgeStyle=orthogonalEdgeStyle;rounded=0;orthogonalLoop=1;jettySize=auto;html=1;entryX=0.5;entryY=0;entryDx=0;entryDy=0;entryPerimeter=0;" edge="1" parent="WIyWlLk6GJQsqaUBKTNV-1" source="Zq0K8tdkG1jb1ZXryi7G-14" target="Zq0K8tdkG1jb1ZXryi7G-16">
          <mxGeometry relative="1" as="geometry" />
        </mxCell>
        <mxCell id="Zq0K8tdkG1jb1ZXryi7G-14" value="respostaMenu" style="strokeWidth=2;html=1;shape=mxgraph.flowchart.decision;whiteSpace=wrap;" vertex="1" parent="WIyWlLk6GJQsqaUBKTNV-1">
          <mxGeometry x="370" y="970" width="100" height="100" as="geometry" />
        </mxCell>
        <mxCell id="Zq0K8tdkG1jb1ZXryi7G-23" style="edgeStyle=orthogonalEdgeStyle;rounded=0;orthogonalLoop=1;jettySize=auto;html=1;entryX=0.5;entryY=0;entryDx=0;entryDy=0;entryPerimeter=0;" edge="1" parent="WIyWlLk6GJQsqaUBKTNV-1" source="Zq0K8tdkG1jb1ZXryi7G-16" target="Zq0K8tdkG1jb1ZXryi7G-17">
          <mxGeometry relative="1" as="geometry" />
        </mxCell>
        <mxCell id="Zq0K8tdkG1jb1ZXryi7G-34" style="edgeStyle=orthogonalEdgeStyle;rounded=0;orthogonalLoop=1;jettySize=auto;html=1;entryX=0;entryY=0.5;entryDx=0;entryDy=0;entryPerimeter=0;" edge="1" parent="WIyWlLk6GJQsqaUBKTNV-1" source="Zq0K8tdkG1jb1ZXryi7G-16" target="Zq0K8tdkG1jb1ZXryi7G-27">
          <mxGeometry relative="1" as="geometry" />
        </mxCell>
        <mxCell id="Zq0K8tdkG1jb1ZXryi7G-16" value="= 1" style="strokeWidth=2;html=1;shape=mxgraph.flowchart.decision;whiteSpace=wrap;" vertex="1" parent="WIyWlLk6GJQsqaUBKTNV-1">
          <mxGeometry x="370" y="1120" width="100" height="100" as="geometry" />
        </mxCell>
        <mxCell id="Zq0K8tdkG1jb1ZXryi7G-24" style="edgeStyle=orthogonalEdgeStyle;rounded=0;orthogonalLoop=1;jettySize=auto;html=1;entryX=0.5;entryY=0;entryDx=0;entryDy=0;entryPerimeter=0;" edge="1" parent="WIyWlLk6GJQsqaUBKTNV-1" source="Zq0K8tdkG1jb1ZXryi7G-17" target="Zq0K8tdkG1jb1ZXryi7G-18">
          <mxGeometry relative="1" as="geometry" />
        </mxCell>
        <mxCell id="Zq0K8tdkG1jb1ZXryi7G-46" style="edgeStyle=orthogonalEdgeStyle;rounded=0;orthogonalLoop=1;jettySize=auto;html=1;entryX=0;entryY=0.5;entryDx=0;entryDy=0;entryPerimeter=0;" edge="1" parent="WIyWlLk6GJQsqaUBKTNV-1" source="Zq0K8tdkG1jb1ZXryi7G-17" target="Zq0K8tdkG1jb1ZXryi7G-45">
          <mxGeometry relative="1" as="geometry" />
        </mxCell>
        <mxCell id="Zq0K8tdkG1jb1ZXryi7G-17" value="= 2" style="strokeWidth=2;html=1;shape=mxgraph.flowchart.decision;whiteSpace=wrap;" vertex="1" parent="WIyWlLk6GJQsqaUBKTNV-1">
          <mxGeometry x="370" y="1280" width="100" height="100" as="geometry" />
        </mxCell>
        <mxCell id="Zq0K8tdkG1jb1ZXryi7G-25" style="edgeStyle=orthogonalEdgeStyle;rounded=0;orthogonalLoop=1;jettySize=auto;html=1;entryX=0.5;entryY=0;entryDx=0;entryDy=0;entryPerimeter=0;" edge="1" parent="WIyWlLk6GJQsqaUBKTNV-1" source="Zq0K8tdkG1jb1ZXryi7G-18" target="Zq0K8tdkG1jb1ZXryi7G-19">
          <mxGeometry relative="1" as="geometry" />
        </mxCell>
        <mxCell id="Zq0K8tdkG1jb1ZXryi7G-60" style="edgeStyle=orthogonalEdgeStyle;rounded=0;orthogonalLoop=1;jettySize=auto;html=1;" edge="1" parent="WIyWlLk6GJQsqaUBKTNV-1" source="Zq0K8tdkG1jb1ZXryi7G-18" target="Zq0K8tdkG1jb1ZXryi7G-59">
          <mxGeometry relative="1" as="geometry" />
        </mxCell>
        <mxCell id="Zq0K8tdkG1jb1ZXryi7G-18" value="= 3" style="strokeWidth=2;html=1;shape=mxgraph.flowchart.decision;whiteSpace=wrap;" vertex="1" parent="WIyWlLk6GJQsqaUBKTNV-1">
          <mxGeometry x="370" y="1450" width="100" height="100" as="geometry" />
        </mxCell>
        <mxCell id="Zq0K8tdkG1jb1ZXryi7G-26" style="edgeStyle=orthogonalEdgeStyle;rounded=0;orthogonalLoop=1;jettySize=auto;html=1;entryX=0.5;entryY=0;entryDx=0;entryDy=0;entryPerimeter=0;" edge="1" parent="WIyWlLk6GJQsqaUBKTNV-1" source="Zq0K8tdkG1jb1ZXryi7G-19" target="Zq0K8tdkG1jb1ZXryi7G-20">
          <mxGeometry relative="1" as="geometry" />
        </mxCell>
        <mxCell id="Zq0K8tdkG1jb1ZXryi7G-70" style="edgeStyle=orthogonalEdgeStyle;rounded=0;orthogonalLoop=1;jettySize=auto;html=1;entryX=0;entryY=0.5;entryDx=0;entryDy=0;entryPerimeter=0;" edge="1" parent="WIyWlLk6GJQsqaUBKTNV-1" source="Zq0K8tdkG1jb1ZXryi7G-19" target="Zq0K8tdkG1jb1ZXryi7G-69">
          <mxGeometry relative="1" as="geometry" />
        </mxCell>
        <mxCell id="Zq0K8tdkG1jb1ZXryi7G-19" value="= 4" style="strokeWidth=2;html=1;shape=mxgraph.flowchart.decision;whiteSpace=wrap;" vertex="1" parent="WIyWlLk6GJQsqaUBKTNV-1">
          <mxGeometry x="370" y="1630" width="100" height="100" as="geometry" />
        </mxCell>
        <mxCell id="Zq0K8tdkG1jb1ZXryi7G-83" style="edgeStyle=orthogonalEdgeStyle;rounded=0;orthogonalLoop=1;jettySize=auto;html=1;entryX=0;entryY=0.5;entryDx=0;entryDy=0;" edge="1" parent="WIyWlLk6GJQsqaUBKTNV-1" source="Zq0K8tdkG1jb1ZXryi7G-20" target="Zq0K8tdkG1jb1ZXryi7G-82">
          <mxGeometry relative="1" as="geometry" />
        </mxCell>
        <mxCell id="Zq0K8tdkG1jb1ZXryi7G-20" value="= 5" style="strokeWidth=2;html=1;shape=mxgraph.flowchart.decision;whiteSpace=wrap;" vertex="1" parent="WIyWlLk6GJQsqaUBKTNV-1">
          <mxGeometry x="370" y="1820" width="100" height="100" as="geometry" />
        </mxCell>
        <mxCell id="Zq0K8tdkG1jb1ZXryi7G-35" style="edgeStyle=orthogonalEdgeStyle;rounded=0;orthogonalLoop=1;jettySize=auto;html=1;entryX=0;entryY=0.5;entryDx=0;entryDy=0;entryPerimeter=0;" edge="1" parent="WIyWlLk6GJQsqaUBKTNV-1" source="Zq0K8tdkG1jb1ZXryi7G-27" target="Zq0K8tdkG1jb1ZXryi7G-28">
          <mxGeometry relative="1" as="geometry" />
        </mxCell>
        <mxCell id="Zq0K8tdkG1jb1ZXryi7G-27" value="&quot;Perímetro do Triangulo&quot;" style="shape=display;whiteSpace=wrap;html=1;" vertex="1" parent="WIyWlLk6GJQsqaUBKTNV-1">
          <mxGeometry x="529" y="1150" width="131" height="40" as="geometry" />
        </mxCell>
        <mxCell id="Zq0K8tdkG1jb1ZXryi7G-36" style="edgeStyle=orthogonalEdgeStyle;rounded=0;orthogonalLoop=1;jettySize=auto;html=1;entryX=0;entryY=0.5;entryDx=0;entryDy=0;" edge="1" parent="WIyWlLk6GJQsqaUBKTNV-1" source="Zq0K8tdkG1jb1ZXryi7G-28" target="Zq0K8tdkG1jb1ZXryi7G-29">
          <mxGeometry relative="1" as="geometry" />
        </mxCell>
        <mxCell id="Zq0K8tdkG1jb1ZXryi7G-28" value="&quot;Digite o valor do primeiro lado:&quot;" style="shape=display;whiteSpace=wrap;html=1;" vertex="1" parent="WIyWlLk6GJQsqaUBKTNV-1">
          <mxGeometry x="720" y="1145" width="130" height="50" as="geometry" />
        </mxCell>
        <mxCell id="Zq0K8tdkG1jb1ZXryi7G-37" style="edgeStyle=orthogonalEdgeStyle;rounded=0;orthogonalLoop=1;jettySize=auto;html=1;entryX=0;entryY=0.5;entryDx=0;entryDy=0;entryPerimeter=0;" edge="1" parent="WIyWlLk6GJQsqaUBKTNV-1" source="Zq0K8tdkG1jb1ZXryi7G-29" target="Zq0K8tdkG1jb1ZXryi7G-30">
          <mxGeometry relative="1" as="geometry" />
        </mxCell>
        <mxCell id="Zq0K8tdkG1jb1ZXryi7G-29" value="ladoUm" style="shape=manualInput;whiteSpace=wrap;html=1;" vertex="1" parent="WIyWlLk6GJQsqaUBKTNV-1">
          <mxGeometry x="910" y="1130" width="80" height="80" as="geometry" />
        </mxCell>
        <mxCell id="Zq0K8tdkG1jb1ZXryi7G-38" style="edgeStyle=orthogonalEdgeStyle;rounded=0;orthogonalLoop=1;jettySize=auto;html=1;entryX=0;entryY=0.5;entryDx=0;entryDy=0;" edge="1" parent="WIyWlLk6GJQsqaUBKTNV-1" source="Zq0K8tdkG1jb1ZXryi7G-30" target="Zq0K8tdkG1jb1ZXryi7G-31">
          <mxGeometry relative="1" as="geometry" />
        </mxCell>
        <mxCell id="Zq0K8tdkG1jb1ZXryi7G-30" value="&quot;Digite o valor do segundo lado:&quot;" style="shape=display;whiteSpace=wrap;html=1;" vertex="1" parent="WIyWlLk6GJQsqaUBKTNV-1">
          <mxGeometry x="1050" y="1145" width="130" height="50" as="geometry" />
        </mxCell>
        <mxCell id="Zq0K8tdkG1jb1ZXryi7G-39" style="edgeStyle=orthogonalEdgeStyle;rounded=0;orthogonalLoop=1;jettySize=auto;html=1;entryX=0;entryY=0.5;entryDx=0;entryDy=0;entryPerimeter=0;" edge="1" parent="WIyWlLk6GJQsqaUBKTNV-1" source="Zq0K8tdkG1jb1ZXryi7G-31" target="Zq0K8tdkG1jb1ZXryi7G-32">
          <mxGeometry relative="1" as="geometry" />
        </mxCell>
        <mxCell id="Zq0K8tdkG1jb1ZXryi7G-31" value="ladoDois" style="shape=manualInput;whiteSpace=wrap;html=1;" vertex="1" parent="WIyWlLk6GJQsqaUBKTNV-1">
          <mxGeometry x="1240.5" y="1130" width="80" height="80" as="geometry" />
        </mxCell>
        <mxCell id="Zq0K8tdkG1jb1ZXryi7G-40" style="edgeStyle=orthogonalEdgeStyle;rounded=0;orthogonalLoop=1;jettySize=auto;html=1;entryX=0;entryY=0.5;entryDx=0;entryDy=0;" edge="1" parent="WIyWlLk6GJQsqaUBKTNV-1" source="Zq0K8tdkG1jb1ZXryi7G-32" target="Zq0K8tdkG1jb1ZXryi7G-33">
          <mxGeometry relative="1" as="geometry" />
        </mxCell>
        <mxCell id="Zq0K8tdkG1jb1ZXryi7G-32" value="&quot;Digite o valor do terceiro lado:&quot;" style="shape=display;whiteSpace=wrap;html=1;" vertex="1" parent="WIyWlLk6GJQsqaUBKTNV-1">
          <mxGeometry x="1384" y="1145" width="130" height="50" as="geometry" />
        </mxCell>
        <mxCell id="Zq0K8tdkG1jb1ZXryi7G-42" style="edgeStyle=orthogonalEdgeStyle;rounded=0;orthogonalLoop=1;jettySize=auto;html=1;" edge="1" parent="WIyWlLk6GJQsqaUBKTNV-1" source="Zq0K8tdkG1jb1ZXryi7G-33" target="Zq0K8tdkG1jb1ZXryi7G-41">
          <mxGeometry relative="1" as="geometry" />
        </mxCell>
        <mxCell id="Zq0K8tdkG1jb1ZXryi7G-33" value="ladoTres" style="shape=manualInput;whiteSpace=wrap;html=1;" vertex="1" parent="WIyWlLk6GJQsqaUBKTNV-1">
          <mxGeometry x="1574" y="1130" width="80" height="80" as="geometry" />
        </mxCell>
        <mxCell id="Zq0K8tdkG1jb1ZXryi7G-44" style="edgeStyle=orthogonalEdgeStyle;rounded=0;orthogonalLoop=1;jettySize=auto;html=1;" edge="1" parent="WIyWlLk6GJQsqaUBKTNV-1" source="Zq0K8tdkG1jb1ZXryi7G-41">
          <mxGeometry relative="1" as="geometry">
            <mxPoint x="450" y="553" as="targetPoint" />
            <Array as="points">
              <mxPoint x="1950" y="1170" />
              <mxPoint x="1950" y="553" />
            </Array>
          </mxGeometry>
        </mxCell>
        <mxCell id="Zq0K8tdkG1jb1ZXryi7G-41" value="&quot;O perimetro deste triangulo é: &quot; &amp;amp; (ladoUm + ladoDois + ladoTres)" style="shape=display;whiteSpace=wrap;html=1;spacingLeft=21;" vertex="1" parent="WIyWlLk6GJQsqaUBKTNV-1">
          <mxGeometry x="1710" y="1135" width="170" height="70" as="geometry" />
        </mxCell>
        <mxCell id="Zq0K8tdkG1jb1ZXryi7G-48" style="edgeStyle=orthogonalEdgeStyle;rounded=0;orthogonalLoop=1;jettySize=auto;html=1;entryX=0;entryY=0.5;entryDx=0;entryDy=0;entryPerimeter=0;" edge="1" parent="WIyWlLk6GJQsqaUBKTNV-1" source="Zq0K8tdkG1jb1ZXryi7G-45" target="Zq0K8tdkG1jb1ZXryi7G-47">
          <mxGeometry relative="1" as="geometry" />
        </mxCell>
        <mxCell id="Zq0K8tdkG1jb1ZXryi7G-45" value="&quot;Area do Retangulo&quot;" style="shape=display;whiteSpace=wrap;html=1;" vertex="1" parent="WIyWlLk6GJQsqaUBKTNV-1">
          <mxGeometry x="529" y="1310" width="131" height="40" as="geometry" />
        </mxCell>
        <mxCell id="Zq0K8tdkG1jb1ZXryi7G-50" style="edgeStyle=orthogonalEdgeStyle;rounded=0;orthogonalLoop=1;jettySize=auto;html=1;entryX=0;entryY=0.5;entryDx=0;entryDy=0;" edge="1" parent="WIyWlLk6GJQsqaUBKTNV-1" source="Zq0K8tdkG1jb1ZXryi7G-47" target="Zq0K8tdkG1jb1ZXryi7G-49">
          <mxGeometry relative="1" as="geometry" />
        </mxCell>
        <mxCell id="Zq0K8tdkG1jb1ZXryi7G-47" value="&quot;Digite o valor do primeiro lado:&quot;" style="shape=display;whiteSpace=wrap;html=1;spacingLeft=30;" vertex="1" parent="WIyWlLk6GJQsqaUBKTNV-1">
          <mxGeometry x="720" y="1310" width="180" height="40" as="geometry" />
        </mxCell>
        <mxCell id="Zq0K8tdkG1jb1ZXryi7G-54" style="edgeStyle=orthogonalEdgeStyle;rounded=0;orthogonalLoop=1;jettySize=auto;html=1;entryX=0;entryY=0.5;entryDx=0;entryDy=0;entryPerimeter=0;" edge="1" parent="WIyWlLk6GJQsqaUBKTNV-1" source="Zq0K8tdkG1jb1ZXryi7G-49" target="Zq0K8tdkG1jb1ZXryi7G-52">
          <mxGeometry relative="1" as="geometry" />
        </mxCell>
        <mxCell id="Zq0K8tdkG1jb1ZXryi7G-49" value="ladoUm" style="shape=manualInput;whiteSpace=wrap;html=1;" vertex="1" parent="WIyWlLk6GJQsqaUBKTNV-1">
          <mxGeometry x="960" y="1290" width="80" height="80" as="geometry" />
        </mxCell>
        <mxCell id="Zq0K8tdkG1jb1ZXryi7G-51" style="edgeStyle=orthogonalEdgeStyle;rounded=0;orthogonalLoop=1;jettySize=auto;html=1;entryX=0;entryY=0.5;entryDx=0;entryDy=0;" edge="1" parent="WIyWlLk6GJQsqaUBKTNV-1" source="Zq0K8tdkG1jb1ZXryi7G-52" target="Zq0K8tdkG1jb1ZXryi7G-53">
          <mxGeometry relative="1" as="geometry" />
        </mxCell>
        <mxCell id="Zq0K8tdkG1jb1ZXryi7G-52" value="&quot;Digite o valor do segundo lado:&quot;" style="shape=display;whiteSpace=wrap;html=1;spacingLeft=30;" vertex="1" parent="WIyWlLk6GJQsqaUBKTNV-1">
          <mxGeometry x="1100" y="1310" width="180" height="40" as="geometry" />
        </mxCell>
        <mxCell id="Zq0K8tdkG1jb1ZXryi7G-56" style="edgeStyle=orthogonalEdgeStyle;rounded=0;orthogonalLoop=1;jettySize=auto;html=1;entryX=0;entryY=0.5;entryDx=0;entryDy=0;entryPerimeter=0;" edge="1" parent="WIyWlLk6GJQsqaUBKTNV-1" source="Zq0K8tdkG1jb1ZXryi7G-53" target="Zq0K8tdkG1jb1ZXryi7G-55">
          <mxGeometry relative="1" as="geometry" />
        </mxCell>
        <mxCell id="Zq0K8tdkG1jb1ZXryi7G-53" value="ladoDois" style="shape=manualInput;whiteSpace=wrap;html=1;" vertex="1" parent="WIyWlLk6GJQsqaUBKTNV-1">
          <mxGeometry x="1340" y="1290" width="80" height="80" as="geometry" />
        </mxCell>
        <mxCell id="Zq0K8tdkG1jb1ZXryi7G-58" style="edgeStyle=orthogonalEdgeStyle;rounded=0;orthogonalLoop=1;jettySize=auto;html=1;" edge="1" parent="WIyWlLk6GJQsqaUBKTNV-1">
          <mxGeometry relative="1" as="geometry">
            <mxPoint x="1630" y="1329.9999999999995" as="sourcePoint" />
            <mxPoint x="470" y="530" as="targetPoint" />
            <Array as="points">
              <mxPoint x="1980" y="1330" />
              <mxPoint x="1980" y="530" />
            </Array>
          </mxGeometry>
        </mxCell>
        <mxCell id="Zq0K8tdkG1jb1ZXryi7G-55" value="&quot;A area deste retangulo é: &quot; &amp;amp; (ladoUm * ladoDois)" style="shape=display;whiteSpace=wrap;html=1;spacingLeft=20;" vertex="1" parent="WIyWlLk6GJQsqaUBKTNV-1">
          <mxGeometry x="1480" y="1290" width="170" height="80" as="geometry" />
        </mxCell>
        <mxCell id="Zq0K8tdkG1jb1ZXryi7G-62" style="edgeStyle=orthogonalEdgeStyle;rounded=0;orthogonalLoop=1;jettySize=auto;html=1;entryX=0;entryY=0.5;entryDx=0;entryDy=0;entryPerimeter=0;" edge="1" parent="WIyWlLk6GJQsqaUBKTNV-1" source="Zq0K8tdkG1jb1ZXryi7G-59" target="Zq0K8tdkG1jb1ZXryi7G-61">
          <mxGeometry relative="1" as="geometry" />
        </mxCell>
        <mxCell id="Zq0K8tdkG1jb1ZXryi7G-59" value="&quot;Perimetro de uma Circunferencia&quot;" style="shape=display;whiteSpace=wrap;html=1;" vertex="1" parent="WIyWlLk6GJQsqaUBKTNV-1">
          <mxGeometry x="529" y="1480" width="150" height="40" as="geometry" />
        </mxCell>
        <mxCell id="Zq0K8tdkG1jb1ZXryi7G-64" style="edgeStyle=orthogonalEdgeStyle;rounded=0;orthogonalLoop=1;jettySize=auto;html=1;entryX=0;entryY=0.5;entryDx=0;entryDy=0;" edge="1" parent="WIyWlLk6GJQsqaUBKTNV-1" source="Zq0K8tdkG1jb1ZXryi7G-61" target="Zq0K8tdkG1jb1ZXryi7G-63">
          <mxGeometry relative="1" as="geometry" />
        </mxCell>
        <mxCell id="Zq0K8tdkG1jb1ZXryi7G-61" value="&quot;Digite o valor do raio:&quot;" style="shape=display;whiteSpace=wrap;html=1;" vertex="1" parent="WIyWlLk6GJQsqaUBKTNV-1">
          <mxGeometry x="740" y="1480" width="160" height="40" as="geometry" />
        </mxCell>
        <mxCell id="Zq0K8tdkG1jb1ZXryi7G-66" style="edgeStyle=orthogonalEdgeStyle;rounded=0;orthogonalLoop=1;jettySize=auto;html=1;" edge="1" parent="WIyWlLk6GJQsqaUBKTNV-1" source="Zq0K8tdkG1jb1ZXryi7G-63" target="Zq0K8tdkG1jb1ZXryi7G-65">
          <mxGeometry relative="1" as="geometry" />
        </mxCell>
        <mxCell id="Zq0K8tdkG1jb1ZXryi7G-63" value="raio" style="shape=manualInput;whiteSpace=wrap;html=1;" vertex="1" parent="WIyWlLk6GJQsqaUBKTNV-1">
          <mxGeometry x="960" y="1460" width="80" height="80" as="geometry" />
        </mxCell>
        <mxCell id="Zq0K8tdkG1jb1ZXryi7G-68" style="edgeStyle=orthogonalEdgeStyle;rounded=0;orthogonalLoop=1;jettySize=auto;html=1;entryX=0.882;entryY=0.411;entryDx=0;entryDy=0;entryPerimeter=0;" edge="1" parent="WIyWlLk6GJQsqaUBKTNV-1" target="Zq0K8tdkG1jb1ZXryi7G-9">
          <mxGeometry relative="1" as="geometry">
            <mxPoint x="1180" y="1500" as="sourcePoint" />
            <mxPoint x="500" y="580" as="targetPoint" />
            <Array as="points">
              <mxPoint x="2010" y="1501" />
              <mxPoint x="2010" y="520" />
              <mxPoint x="458" y="520" />
            </Array>
          </mxGeometry>
        </mxCell>
        <mxCell id="Zq0K8tdkG1jb1ZXryi7G-65" value="&quot;A area desta circunferencia é: &quot; &amp;amp; (2 * 3 * raio)" style="shape=display;whiteSpace=wrap;html=1;spacingLeft=23;" vertex="1" parent="WIyWlLk6GJQsqaUBKTNV-1">
          <mxGeometry x="1100" y="1470" width="180" height="60" as="geometry" />
        </mxCell>
        <mxCell id="Zq0K8tdkG1jb1ZXryi7G-72" style="edgeStyle=orthogonalEdgeStyle;rounded=0;orthogonalLoop=1;jettySize=auto;html=1;entryX=0;entryY=0.5;entryDx=0;entryDy=0;entryPerimeter=0;" edge="1" parent="WIyWlLk6GJQsqaUBKTNV-1" source="Zq0K8tdkG1jb1ZXryi7G-69" target="Zq0K8tdkG1jb1ZXryi7G-71">
          <mxGeometry relative="1" as="geometry" />
        </mxCell>
        <mxCell id="Zq0K8tdkG1jb1ZXryi7G-69" value="&quot;Divisão e soma&quot;" style="shape=display;whiteSpace=wrap;html=1;" vertex="1" parent="WIyWlLk6GJQsqaUBKTNV-1">
          <mxGeometry x="529" y="1660" width="121" height="40" as="geometry" />
        </mxCell>
        <mxCell id="Zq0K8tdkG1jb1ZXryi7G-74" style="edgeStyle=orthogonalEdgeStyle;rounded=0;orthogonalLoop=1;jettySize=auto;html=1;entryX=0;entryY=0.5;entryDx=0;entryDy=0;" edge="1" parent="WIyWlLk6GJQsqaUBKTNV-1" source="Zq0K8tdkG1jb1ZXryi7G-71" target="Zq0K8tdkG1jb1ZXryi7G-73">
          <mxGeometry relative="1" as="geometry" />
        </mxCell>
        <mxCell id="Zq0K8tdkG1jb1ZXryi7G-71" value="&quot;Digite o valor de um número, para que assim obtenha o resultado da soma entre o dobro dele e sua metade:&quot;" style="shape=display;whiteSpace=wrap;html=1;spacingLeft=23;" vertex="1" parent="WIyWlLk6GJQsqaUBKTNV-1">
          <mxGeometry x="710" y="1630" width="180" height="100" as="geometry" />
        </mxCell>
        <mxCell id="Zq0K8tdkG1jb1ZXryi7G-76" style="edgeStyle=orthogonalEdgeStyle;rounded=0;orthogonalLoop=1;jettySize=auto;html=1;" edge="1" parent="WIyWlLk6GJQsqaUBKTNV-1" source="Zq0K8tdkG1jb1ZXryi7G-73" target="Zq0K8tdkG1jb1ZXryi7G-75">
          <mxGeometry relative="1" as="geometry" />
        </mxCell>
        <mxCell id="Zq0K8tdkG1jb1ZXryi7G-73" value="numero" style="shape=manualInput;whiteSpace=wrap;html=1;" vertex="1" parent="WIyWlLk6GJQsqaUBKTNV-1">
          <mxGeometry x="950" y="1640" width="80" height="80" as="geometry" />
        </mxCell>
        <mxCell id="Zq0K8tdkG1jb1ZXryi7G-77" style="edgeStyle=orthogonalEdgeStyle;rounded=0;orthogonalLoop=1;jettySize=auto;html=1;entryX=0.766;entryY=0.232;entryDx=0;entryDy=0;entryPerimeter=0;" edge="1" parent="WIyWlLk6GJQsqaUBKTNV-1" source="Zq0K8tdkG1jb1ZXryi7G-75" target="Zq0K8tdkG1jb1ZXryi7G-9">
          <mxGeometry relative="1" as="geometry">
            <Array as="points">
              <mxPoint x="2040" y="1680" />
              <mxPoint x="2040" y="503" />
            </Array>
          </mxGeometry>
        </mxCell>
        <mxCell id="Zq0K8tdkG1jb1ZXryi7G-75" value="&quot;O resultado dessa equação é: &quot; &amp;amp; ((numero / 2) + (2 * numero))" style="shape=display;whiteSpace=wrap;html=1;spacingLeft=21;" vertex="1" parent="WIyWlLk6GJQsqaUBKTNV-1">
          <mxGeometry x="1090" y="1640" width="170" height="80" as="geometry" />
        </mxCell>
        <mxCell id="Zq0K8tdkG1jb1ZXryi7G-78" value="Fim" style="strokeWidth=2;html=1;shape=mxgraph.flowchart.start_1;whiteSpace=wrap;" vertex="1" parent="WIyWlLk6GJQsqaUBKTNV-1">
          <mxGeometry x="370" y="2010" width="100" height="60" as="geometry" />
        </mxCell>
        <mxCell id="Zq0K8tdkG1jb1ZXryi7G-84" style="edgeStyle=orthogonalEdgeStyle;rounded=0;orthogonalLoop=1;jettySize=auto;html=1;entryX=0.587;entryY=0.043;entryDx=0;entryDy=0;entryPerimeter=0;" edge="1" parent="WIyWlLk6GJQsqaUBKTNV-1" source="Zq0K8tdkG1jb1ZXryi7G-82" target="Zq0K8tdkG1jb1ZXryi7G-9">
          <mxGeometry relative="1" as="geometry">
            <Array as="points">
              <mxPoint x="2070" y="1870" />
              <mxPoint x="2070" y="484" />
            </Array>
          </mxGeometry>
        </mxCell>
        <mxCell id="Zq0K8tdkG1jb1ZXryi7G-82" value="menu = falso" style="rounded=0;whiteSpace=wrap;html=1;" vertex="1" parent="WIyWlLk6GJQsqaUBKTNV-1">
          <mxGeometry x="529" y="1840" width="120" height="60" as="geometry" />
        </mxCell>
        <mxCell id="Zq0K8tdkG1jb1ZXryi7G-86" value="Falso" style="text;html=1;strokeColor=none;fillColor=none;align=center;verticalAlign=middle;whiteSpace=wrap;rounded=0;" vertex="1" parent="WIyWlLk6GJQsqaUBKTNV-1">
          <mxGeometry x="320" y="500" width="60" height="30" as="geometry" />
        </mxCell>
        <mxCell id="Zq0K8tdkG1jb1ZXryi7G-87" value="Verdadeiro" style="text;html=1;strokeColor=none;fillColor=none;align=center;verticalAlign=middle;whiteSpace=wrap;rounded=0;" vertex="1" parent="WIyWlLk6GJQsqaUBKTNV-1">
          <mxGeometry x="430" y="580" width="60" height="30" as="geometry" />
        </mxCell>
      </root>
    </mxGraphModel>
  </diagram>
</mxfile>
